HIERARCHY
ROOT root
{
	OFFSET 0.000000 0.000000 0.000000
	CHANNELS 6 Xposition Yposition Zposition Zrotation Yrotation Xrotation
	JOINT lhip
	{
		OFFSET 0.058581 -0.082280 -0.017664
		CHANNELS 3 Zrotation Yrotation Xrotation
		JOINT lknee
		{
			OFFSET 0.043451 -0.386469 0.008037
			CHANNELS 3 Zrotation Yrotation Xrotation
			JOINT lankle
			{
				OFFSET -0.014790 -0.426874 -0.037428
				CHANNELS 3 Zrotation Yrotation Xrotation
				JOINT ltoe
				{
					OFFSET 0.041054 -0.060286 0.122042
					CHANNELS 3 Zrotation Yrotation Xrotation
					End Site
					{
						OFFSET 0.000000 0.000000 0.000000
					}
				}
			}
		}
	}
	JOINT rhip
	{
		OFFSET -0.060310 -0.090513 -0.013543
		CHANNELS 3 Zrotation Yrotation Xrotation
		JOINT rknee
		{
			OFFSET -0.043257 -0.383688 -0.004843
			CHANNELS 3 Zrotation Yrotation Xrotation
			JOINT rankle
			{
				OFFSET 0.019056 -0.420046 -0.034562
				CHANNELS 3 Zrotation Yrotation Xrotation
				JOINT rtoe
				{
					OFFSET -0.034840 -0.062106 0.130323
					CHANNELS 3 Zrotation Yrotation Xrotation
					End Site
					{
						OFFSET 0.000000 0.000000 0.000000
					}
				}
			}
		}
	}
	JOINT lowerback
	{
		OFFSET 0.004439 0.124404 -0.038385
		CHANNELS 3 Zrotation Yrotation Xrotation
		JOINT upperback
		{
			OFFSET 0.004488 0.137956 0.026820
			CHANNELS 3 Zrotation Yrotation Xrotation
			JOINT chest
			{
				OFFSET -0.002265 0.056032 0.002855
				CHANNELS 3 Zrotation Yrotation Xrotation
				JOINT lowerneck
				{
					OFFSET -0.013390 0.211636 -0.033468
					CHANNELS 3 Zrotation Yrotation Xrotation
					JOINT upperneck
					{
						OFFSET 0.010113 0.088937 0.050410
						CHANNELS 3 Zrotation Yrotation Xrotation
						End Site
						{
							OFFSET 0.000000 0.000000 0.000000
						}
					}
				}
				JOINT lclavicle
				{
					OFFSET 0.071702 0.114000 -0.018898
					CHANNELS 3 Zrotation Yrotation Xrotation
					JOINT lshoulder
					{
						OFFSET 0.122921 0.045205 -0.019046
						CHANNELS 3 Zrotation Yrotation Xrotation
						JOINT lelbow
						{
							OFFSET 0.255332 -0.015649 -0.022946
							CHANNELS 3 Zrotation Yrotation Xrotation
							JOINT lwrist
							{
								OFFSET 0.265709 0.012698 -0.007375
								CHANNELS 3 Zrotation Yrotation Xrotation
								End Site
								{
									OFFSET 0.000000 0.000000 0.000000
								}
							}
						}
					}
				}
				JOINT rclavicle
				{
					OFFSET -0.082954 0.112472 -0.023707
					CHANNELS 3 Zrotation Yrotation Xrotation
					JOINT rshoulder
					{
						OFFSET -0.113228 0.046853 -0.008472
						CHANNELS 3 Zrotation Yrotation Xrotation
						JOINT relbow
						{
							OFFSET -0.260127 -0.014369 -0.031269
							CHANNELS 3 Zrotation Yrotation Xrotation
							JOINT rwrist
							{
								OFFSET -0.269108 0.006794 -0.006027
								CHANNELS 3 Zrotation Yrotation Xrotation
								End Site
								{
									OFFSET 0.000000 0.000000 0.000000
								}
							}
						}
					}
				}
			}
		}
	}
}
MOTION
Frames: 7
Frame Time: 0.033333
0.013360 1.903283 1.016502 -8.530631 -1.564599 83.861895 -2.509739 -4.609075 -5.925413 -5.330031 -12.197176 30.523047 0.520464 4.727923 -9.574996 0.000000 -0.000000 0.000000 0.511566 -4.430067 6.698884 1.482458 1.101911 13.823067 0.591110 -3.669879 -15.315724 0.000000 -0.000000 0.000000 3.619233 3.843859 15.166780 0.696049 -0.259382 -1.906409 -0.789935 -0.201884 3.189979 -0.508545 4.360741 9.732045 -3.811184 1.627795 17.477875 -28.915989 5.586778 2.301900 -57.551229 -5.107951 6.738496 12.998062 -23.237420 -1.723285 -2.806260 -3.444774 -11.011897 27.732963 1.327373 2.999198 53.504249 7.707639 11.935606 -13.977852 20.804645 -9.327025 2.819602 3.432464 -8.412564 
0.009325 1.905220 1.017028 -8.157404 -1.674764 83.600327 -2.246980 -6.236916 -10.997026 -6.324794 -9.421353 39.062468 -1.669948 3.669798 -4.599494 0.000000 -0.000000 0.000000 0.745168 -4.302124 7.140222 1.602675 1.164736 13.275762 -0.113521 -4.150805 -15.275940 0.000000 -0.000000 0.000000 3.857595 4.481531 15.591154 0.752746 -0.438972 -1.656048 -0.858975 -0.061962 3.417365 -1.211118 3.960515 9.697568 -3.203029 1.738835 17.225630 -28.589965 5.044230 2.560956 -59.204599 -5.220229 7.497868 13.464507 -23.516382 -1.156802 -1.958129 -2.943936 -11.472917 26.984680 1.886977 3.350278 53.422953 8.372027 11.898495 -14.578139 20.770661 -9.515817 2.278199 3.027654 -8.975798 
0.003988 1.906476 1.016381 -8.397510 -1.719176 82.978824 -1.111232 -6.866144 -15.683168 -7.197282 -5.143962 46.543679 -3.698147 3.468682 1.493600 0.000000 -0.000000 0.000000 0.854998 -4.436833 7.690180 1.798526 1.116224 13.340909 -1.058881 -3.977256 -15.808950 0.000000 -0.000000 0.000000 3.870554 5.435842 16.535069 0.971493 -0.409750 -1.416044 -0.775782 0.083966 3.158529 -1.509368 3.200926 10.219400 -2.675506 1.510073 16.997460 -28.968245 4.450204 2.821145 -59.576342 -5.025551 7.900346 13.236272 -24.017436 -0.818823 -1.668170 -2.660665 -11.454983 26.871485 2.593772 4.124196 52.802816 8.653687 11.386050 -15.538878 21.026978 -10.255650 1.927827 2.703638 -9.373147 
-0.001106 1.904936 1.014762 -8.580607 -1.802909 82.063669 0.119677 -7.023213 -21.756350 -5.972265 1.709944 57.326239 -0.247211 5.983996 0.896612 0.000000 -0.000000 0.000000 0.759795 -4.778271 8.787849 2.068670 1.565602 13.435753 -1.483295 -3.640443 -16.370855 0.000000 -0.000000 0.000000 3.826239 6.497051 17.986368 1.127665 -0.323998 -2.033800 -0.601049 0.334981 3.692839 -1.697840 2.202242 9.860951 -2.092712 2.048988 17.439675 -29.279625 4.208908 2.825928 -59.983329 -4.955976 8.077586 12.570531 -25.074178 0.839199 -0.997195 -2.842558 -10.180044 26.477526 2.806474 4.110048 51.573144 8.846547 11.121636 -14.846885 21.366552 -9.878550 1.324407 2.852036 -8.941359 
-0.004567 1.902881 1.013611 -8.539294 -1.893384 81.694909 1.027601 -6.564950 -25.858763 -4.034380 5.827118 64.751314 0.862658 8.024061 -4.942892 0.000000 -0.000000 0.000000 0.834959 -5.071730 9.418361 1.881154 1.687400 13.300180 -1.381939 -3.500374 -16.594931 0.000000 -0.000000 0.000000 3.854068 6.832096 18.565195 1.101602 -0.443284 -2.805937 -0.727000 0.487910 4.392035 -1.460067 1.776191 9.493084 -2.245007 2.047288 18.324420 -29.586922 4.190724 2.939723 -59.618200 -5.109202 7.830114 12.082982 -25.798841 1.946269 -0.835426 -3.869621 -8.905451 26.319372 2.855413 3.974795 51.564481 9.265834 11.121536 -14.707510 20.997095 -9.190060 1.195398 2.984193 -8.553032 
-0.009471 1.898744 1.013870 -8.307362 -1.756411 81.048396 2.446645 -5.973315 -30.967510 -3.266057 9.218008 74.093864 2.730283 7.971075 -8.624228 0.000000 -0.000000 0.000000 1.008918 -5.903732 10.567879 1.864914 2.037615 12.887222 -1.043635 -3.155067 -16.242644 0.000000 -0.000000 0.000000 3.862377 7.417438 19.529683 1.282793 -0.855933 -3.628090 -0.663040 0.727480 4.961140 -1.601908 1.242369 9.570435 -1.978719 2.366308 18.626519 -29.600762 4.149916 3.114705 -59.596635 -4.866152 7.676407 11.224341 -26.325343 3.563448 0.163900 -2.906901 -8.552986 26.602698 2.722382 3.760849 50.886925 9.500503 10.782723 -14.062072 20.937788 -8.209550 0.848692 2.868963 -7.919939 
-0.012679 1.893004 1.014107 -8.322994 -2.364264 80.302228 2.939807 -5.833538 -35.329341 -3.244064 12.351074 80.971651 3.796440 7.961007 -12.192948 0.000000 -0.000000 0.000000 0.268464 -6.226139 11.974508 1.794025 2.429383 12.555723 -1.288487 -3.220074 -16.637277 0.000000 -0.000000 0.000000 3.421663 8.181037 20.383301 1.195836 -1.070542 -3.756408 -0.799569 0.949752 5.183383 -1.656193 0.861207 9.590466 -1.541562 2.500814 18.686676 -29.130785 3.726557 3.598367 -59.758555 -5.032477 7.276054 10.256183 -26.594321 5.052864 -3.880697 -3.736051 -10.379662 26.272699 2.831832 3.943236 51.621204 9.645763 10.519780 -14.223399 20.839864 -7.666880 1.842618 2.629319 -8.943535 
